<svg width="534" height="512" viewBox="0 0 534 512" fill="none" xmlns="http://www.w3.org/2000/svg">
<ellipse cx="266.886" cy="255.742" rx="266.886" ry="255.742" fill="#F1DEE2"/>
<path d="M155.464 280.137C155.692 280.592 155.995 282.337 156.374 285.371C156.829 288.405 157.057 290.984 157.057 293.108C157.057 295.156 156.943 296.786 156.716 298H102.671L102.33 294.018C105.895 292.728 109.119 291.856 112.001 291.401C111.546 261.515 111.167 239.48 110.863 225.296C108.891 224.993 105.553 224.082 100.851 222.565L101.42 218.356H128.84C130.129 220.479 130.774 222.717 130.774 225.068C126.678 225.22 123.72 225.334 121.9 225.41C121.748 239.973 121.596 253.247 121.444 265.232C121.369 277.141 121.293 285.522 121.217 290.377H146.134L148.865 279.568C152.657 279.568 154.857 279.758 155.464 280.137ZM204.479 299.365C200.156 299.365 196.401 299.024 193.215 298.341C190.029 297.659 186.957 296.407 183.999 294.587C177.855 290.946 174.669 283.702 174.442 272.855C174.29 262.008 173.911 246.079 173.304 225.068C170.27 224.462 166.857 223.551 163.064 222.338L163.405 218.356H191.964C193.253 220.783 193.898 223.058 193.898 225.182C191.698 225.334 188.55 225.486 184.454 225.637C184.303 234.436 184.227 247.634 184.227 265.232C184.227 274.713 185.971 281.313 189.46 285.029C193.025 288.746 198.07 290.604 204.593 290.604C207.399 290.604 209.827 290.301 211.875 289.694C213.999 289.087 216.084 287.912 218.132 286.167C222.228 282.678 224.276 275.624 224.276 265.004C224.276 264.929 223.935 251.806 223.252 225.637C217.336 223.893 213.923 222.793 213.012 222.338L213.354 218.356H241.571C242.784 221.465 243.391 223.703 243.391 225.068C238.612 225.068 235.54 225.106 234.175 225.182C234.023 231.25 233.834 239.86 233.606 251.01C233.455 262.084 233.341 269.366 233.265 272.855C233.037 281.502 230.383 288.101 225.3 292.652C220.218 297.128 213.278 299.365 204.479 299.365ZM332.696 226.206L344.643 290.263L354.996 291.287C354.996 293.335 354.352 295.573 353.062 298H326.893L326.552 294.018C328.828 293.032 331.634 292.235 334.972 291.628L322.797 227.799L307.779 292.539H296.515L275.807 227.572L266.591 290.263L276.262 291.173C276.262 293.297 275.617 295.573 274.328 298H248.159L247.818 294.018C251.155 292.804 254.493 291.894 257.83 291.287L267.843 225.296C263.216 224.613 259.537 223.817 256.806 222.907L257.261 218.356H283.772L301.862 280.706H302.317L316.426 218.356H341.798C343.088 220.783 343.732 223.134 343.732 225.41C338.802 225.941 335.123 226.206 332.696 226.206ZM400.812 269.556L400.357 290.263L409.915 291.173C409.915 293.449 409.308 295.724 408.094 298H381.812L381.47 294.018C386.097 292.425 389.586 291.515 391.938 291.287C391.862 286.584 391.672 279.34 391.369 269.556L367.476 225.068C364.442 224.462 361.028 223.551 357.236 222.338L357.577 218.356H387.159C388.449 220.783 389.093 223.058 389.093 225.182C385.377 225.41 381.963 225.637 378.853 225.865L395.806 260.34H397.058L414.011 225.068C410.977 224.613 407.412 223.703 403.316 222.338L403.657 218.356H431.191C432.481 220.783 433.125 223.058 433.125 225.182C429.788 225.41 426.564 225.637 423.454 225.865L400.812 269.556Z" fill="black"/>
</svg>
